<?xml version="1.0" encoding="utf-8"?>
<!-- Generator: Adobe Illustrator 21.0.0, SVG Export Plug-In . SVG Version: 6.00 Build 0)  -->
<svg version="1.1" id="Layer_1" xmlns="http://www.w3.org/2000/svg" xmlns:xlink="http://www.w3.org/1999/xlink" x="0px" y="0px"
	 viewBox="0 0 447 325" style="enable-background:new 0 0 447 325;" xml:space="preserve">
<style type="text/css">
	.st0{fill:#FFFFFF;}
	

</style>
<g>
	<g>
		<path id="sign" class="st0" d="M6,331C6,224,6,117,6,10c145.7,0,291.3,0,437,0c0,107,0,214,0,321C297.3,331,151.7,331,6,331z M139.3,20.7
			c-0.2-0.4-0.5-0.8-0.7-1.1c-10.5,3.2-19.5,9.1-27.9,15.9c-18.4,14.9-35.2,31.2-46,52.7c-7.7,15.4-3.9,26.3,11.3,34.5
			c6.4,3.5,13.5,6.2,19.3,10.5c4.9,3.6,10,8.5,12.2,14c4.8,11.7,4.1,17.8-4.3,24.7c-2.2,1.8-4,4-6,6C77,198.3,62.1,222.7,46,246.1
			c-10.5,15.3-20.4,30.9-26.8,48.4c-1.4,3.9-2.2,8.4-2.1,12.6c0,2.5,1.6,6.1,3.6,7.3c3.3,1.9,6.7-0.2,9.2-3
			c5.2-5.8,10.6-11.6,15.6-17.5c18.5-21.8,31.6-46.9,44.8-72c8.9-16.8,17.7-33.6,22.2-52.3c0.6-2.4,2.5-4.8,4.4-6.4
			c10.4-8.9,20.9-17.6,31.6-26.1c4.1-3.3,8.9-5.8,13.3-8.6c-3.5,6.5-7.7,12.1-11.2,18.1c-1.3,2.2-1.7,5.3-1.6,8
			c0.1,1.8,1.6,4.8,2.7,4.9c2.3,0.2,5.6-0.4,7-2c4.3-4.9,7.8-10.3,11.7-15.6c1.5-2.1,3.2-4,5.1-6.4c4.4,6,9.5,5.4,14.7,2.7
			c3.7-1.9,7.2-4.2,10.6-6.6c4.2-3.1,8.2-6.4,12.3-9.7c0.1,1.9-0.3,3.3-1,4.5c-5.2,9.3-10.7,18.4-15.6,27.9
			c-2.5,4.8-4.2,10-5.9,15.2c-0.4,1.4,0.8,3.4,1.3,5.1c1.1-1.4,2.8-2.7,3.2-4.4c4-14.2,11.2-26.2,23.6-34.8c7-4.9,14.3-6.8,22.6-3.9
			c11.3,4,21.6,2,30.9-5.7c1.2-1,3.6-1.8,4.7-1.3c5.7,2.6,11.2,1.2,16.5-0.8c14.6-5.5,27-14.4,37.6-25.7c1.2-1.3,2-2.9,2.9-4.3
			c1.4,1.7,1.7,2.1,1.6,2.6c-1.6,19.7,6.9,34.6,22.2,46c12.4,9.2,25.3,17.9,38.1,26.5c12.1,8.1,24.4,15.9,36.6,23.9
			c-0.6-1.5-1.7-2.5-2.9-3.3c-18.8-13.2-37.9-26.1-56.4-39.6c-8.9-6.6-17.8-13.7-25.1-21.9c-11.4-12.8-12.3-32.7-4.1-47.8
			c4.6-8.5,9.1-17.1,13.2-25.8c0.8-1.7,0-4.1-0.1-6.2c-2,0.5-4.2,0.5-5.8,1.5c-1.6,1-2.8,2.9-3.6,4.7c-2.1,4.5-4.1,9.1-5.8,13.8
			c-2.4,6.4-3.2,13.7-6.9,19.2c-11.4,16.9-27.3,28.6-46.9,34.5c-2.9,0.9-6.7,0.5-9.6-0.7c-3-1.2-5-1.1-7.2,0.9
			c-8.9,8.4-19.1,10-30.6,6.1c-8-2.7-15.4-1.2-22.3,3.5c-2,1.4-4,2.7-6,4c4.6-10.8,8.7-21.3,16-30.4c8-9.9,15.2-20.6,22.1-31.3
			c1.5-2.3,1.9-7.8,0.5-8.9c-3.7-2.8-6.5,1.4-8.2,4c-5.4,8.2-11.2,16.3-15,25.3c-6,14.1-15.7,24.6-27.6,33.5
			c-4.1,3.1-8.5,5.9-13.2,8c-1.9,0.9-4.8-0.4-7.3-0.7c0.4-2.4,0.6-4.9,1.2-7.3c0.6-2.7,1.5-5.3,2.2-7.9c-4.4-0.9-5,3.2-6.6,5.5
			c-6.2,8.8-11.8,18-17.9,26.9c-1.1,1.7-3.4,2.6-5.2,3.8c-0.1-2.5-0.8-5-0.3-7.3c0.4-2,1.9-3.9,3.3-5.5c6.7-7.9,13.4-15.6,20.2-23.4
			c1.1-1.3,2.5-2.3,3.3-3.7c0.6-1,0.3-2.4,0.5-3.6c-1.3,0.2-2.9,0.1-3.9,0.8c-4.6,3.5-9,7.4-13.7,10.8c-12.3,9.1-24.8,18-37.1,27.1
			c-3.8,2.8-7.3,6.1-11.4,9.6c-0.5-1.7-1-2.6-1-3.5c-0.7-13.1-7.5-22.1-18.5-28.3c-5.5-3.1-11.3-5.7-16.9-8.7
			c-14.1-7.7-16.8-15.9-10.3-30.5c0.5-1.2,1.1-2.4,1.8-3.6c15.5-25.4,36.4-45.3,61.9-60.4C134,23.9,136.6,22.3,139.3,20.7z"/>
		<path d="M139.3,20.7c-2.7,1.6-5.3,3.2-8,4.8c-25.6,15.1-46.5,35-61.9,60.4c-0.7,1.1-1.3,2.3-1.8,3.6c-6.5,14.6-3.8,22.9,10.3,30.5
			c5.6,3,11.3,5.6,16.9,8.7c11,6.2,17.9,15.3,18.5,28.3c0,0.9,0.5,1.8,1,3.5c4.1-3.5,7.6-6.7,11.4-9.6c12.3-9.1,24.8-18,37.1-27.1
			c4.7-3.5,9-7.3,13.7-10.8c1-0.7,2.6-0.6,3.9-0.8c-0.1,1.2,0.1,2.6-0.5,3.6c-0.8,1.4-2.2,2.5-3.3,3.7c-6.8,7.8-13.5,15.6-20.2,23.4
			c-1.4,1.6-2.9,3.6-3.3,5.5c-0.5,2.3,0.1,4.9,0.3,7.3c1.8-1.2,4-2.1,5.2-3.8c6.1-8.9,11.8-18.1,17.9-26.9c1.6-2.3,2.2-6.4,6.6-5.5
			c-0.7,2.6-1.6,5.2-2.2,7.9c-0.5,2.4-0.8,4.9-1.2,7.3c2.5,0.3,5.4,1.5,7.3,0.7c4.7-2.1,9.1-4.9,13.2-8
			c11.9-8.9,21.6-19.4,27.6-33.5c3.8-8.9,9.6-17.1,15-25.3c1.7-2.6,4.5-6.8,8.2-4c1.4,1,1,6.6-0.5,8.9c-7,10.7-14.1,21.4-22.1,31.3
			c-7.4,9.1-11.5,19.7-16,30.4c2-1.3,4-2.6,6-4c6.9-4.7,14.4-6.3,22.3-3.5c11.4,3.9,21.6,2.4,30.6-6.1c2.2-2.1,4.2-2.1,7.2-0.9
			c2.9,1.1,6.7,1.6,9.6,0.7c19.7-5.9,35.5-17.6,46.9-34.5c3.7-5.5,4.5-12.8,6.9-19.2c1.7-4.7,3.7-9.3,5.8-13.8
			c0.8-1.8,2-3.7,3.6-4.7c1.6-1,3.8-1,5.8-1.5c0.1,2.1,0.9,4.6,0.1,6.2c-4.2,8.7-8.6,17.3-13.2,25.8c-8.2,15.1-7.3,35,4.1,47.8
			c7.3,8.2,16.2,15.3,25.1,21.9c18.5,13.6,37.6,26.5,56.4,39.6c1.2,0.8,2.2,1.8,2.9,3.3c-12.2-7.9-24.5-15.7-36.6-23.9
			c-12.8-8.6-25.7-17.3-38.1-26.5c-15.3-11.3-23.8-26.3-22.2-46c0-0.4-0.2-0.9-1.6-2.6c-1,1.4-1.8,3-2.9,4.3
			c-10.6,11.4-23,20.3-37.6,25.7c-5.3,2-10.8,3.4-16.5,0.8c-1.2-0.5-3.6,0.3-4.7,1.3c-9.3,7.7-19.6,9.7-30.9,5.7
			c-8.3-2.9-15.6-1.1-22.6,3.9c-12.3,8.6-19.6,20.6-23.6,34.8c-0.5,1.6-2.1,2.9-3.2,4.4c-0.5-1.7-1.7-3.7-1.3-5.1
			c1.6-5.2,3.4-10.4,5.9-15.2c4.9-9.4,10.4-18.6,15.6-27.9c0.7-1.2,1.1-2.6,1-4.5c-4.1,3.2-8,6.6-12.3,9.7
			c-3.4,2.4-6.9,4.7-10.6,6.6c-5.1,2.6-10.3,3.3-14.7-2.7c-1.9,2.4-3.6,4.4-5.1,6.4c-3.9,5.2-7.4,10.7-11.7,15.6
			c-1.4,1.6-4.7,2.2-7,2c-1.1-0.1-2.6-3.2-2.7-4.9c-0.1-2.7,0.3-5.8,1.6-8c3.6-6,7.8-11.5,11.2-18.1c-4.5,2.9-9.2,5.4-13.3,8.6
			c-10.7,8.5-21.2,17.2-31.6,26.1c-1.9,1.6-3.8,4.1-4.4,6.4c-4.5,18.7-13.3,35.5-22.2,52.3c-13.3,25-26.3,50.2-44.8,72
			c-5.1,6-10.4,11.7-15.6,17.5c-2.5,2.8-5.9,4.9-9.2,3c-2-1.2-3.6-4.8-3.6-7.3c-0.1-4.2,0.7-8.6,2.1-12.6
			c6.4-17.5,16.3-33.1,26.8-48.4c16.1-23.5,31.1-47.8,51.2-68.3c2-2,3.8-4.2,6-6c8.4-6.9,9.1-13,4.3-24.7c-2.2-5.5-7.3-10.3-12.2-14
			c-5.8-4.3-12.8-7-19.3-10.5c-15.2-8.2-19-19.1-11.3-34.5c10.7-21.5,27.6-37.8,46-52.7c8.4-6.8,17.5-12.7,27.9-15.9
			C138.8,19.9,139.1,20.3,139.3,20.7z M107.7,174.1c-0.4-0.2-0.9-0.5-1.3-0.7c-1.2,1.1-2.4,2.1-3.5,3.2
			c-14.4,14.2-26.6,30.2-37.7,47.1c-12.4,18.9-24.7,37.9-36.4,57.2c-3.8,6.3-6.3,13.6-8.4,20.7c-0.8,2.8,1,6.5,1.6,9.7
			c2.6-1.5,5.7-2.5,7.7-4.6c34.4-36.4,56.4-80.4,76-125.8C106.7,178.9,107.1,176.4,107.7,174.1z M231.9,94.9
			c6.8-7.7,13.5-15.5,16.2-25.9C240.3,76.2,235.6,85.2,231.9,94.9z M345.8,66.1c0.5,0.2,0.9,0.4,1.4,0.6c2.2-4.4,4.3-8.9,6.5-13.3
			c-0.5-0.2-1-0.5-1.5-0.7C350,57.1,347.9,61.6,345.8,66.1z"/>
		<path class="st0" d="M107.7,174.1c-0.7,2.3-1.1,4.8-2,7c-19.7,45.4-41.6,89.3-76,125.8c-2,2.1-5.1,3.1-7.7,4.6
			c-0.6-3.3-2.5-6.9-1.6-9.7c2.1-7.1,4.6-14.4,8.4-20.7c11.7-19.3,24.1-38.3,36.4-57.2c11-16.9,23.2-32.9,37.7-47.1
			c1.1-1.1,2.4-2.2,3.5-3.2C106.9,173.6,107.3,173.9,107.7,174.1z"/>
		<path class="st0" d="M231.9,94.9c3.7-9.7,8.5-18.7,16.2-25.9C245.4,79.4,238.7,87.2,231.9,94.9z"/>
		<path class="st0" d="M345.8,66.1c2.1-4.5,4.2-9,6.3-13.5c0.5,0.2,1,0.5,1.5,0.7c-2.2,4.4-4.3,8.9-6.5,13.3
			C346.7,66.5,346.2,66.3,345.8,66.1z"/>
	</g>
</g>
<circle cx="274.5" cy="105" r="3.5"/>
</svg>
